<?xml version="1.0" standalone="no"?>
<!DOCTYPE svg PUBLIC "-//W3C//DTD SVG 20010904//EN"
 "http://www.w3.org/TR/2001/REC-SVG-20010904/DTD/svg10.dtd">
<svg version="1.0" xmlns="http://www.w3.org/2000/svg"
 width="1080.000000pt" height="1080.000000pt" viewBox="0 0 1080.000000 1080.000000"
 preserveAspectRatio="xMidYMid meet">
<metadata>
Created by potrace 1.16, written by Peter Selinger 2001-2019
</metadata>
<g transform="translate(0.000000,1080.000000) scale(0.100000,-0.100000)"
fill="#000000" stroke="none">
<path d="M5919 10120 c-11 -19 -14 -74 -14 -243 0 -119 -3 -217 -6 -217 -6 0
-89 126 -89 135 0 4 -38 63 -85 132 -47 69 -85 129 -85 133 0 4 -7 13 -16 21
-13 10 -17 10 -25 -2 -13 -21 -13 -20 34 -81 84 -112 271 -398 300 -460 24
-51 55 -151 67 -212 5 -28 12 -64 16 -81 7 -27 6 -28 -9 -15 -8 8 -78 76 -154
151 -76 75 -160 151 -188 169 -27 19 -61 46 -75 60 -14 14 -42 37 -62 51 -36
24 -36 26 -19 41 11 9 27 18 38 21 12 3 10 5 -9 6 -15 0 -33 -6 -42 -14 -8 -8
-19 -15 -25 -15 -16 0 -1 29 19 35 10 3 20 16 22 29 4 17 1 23 -9 19 -15 -6
-17 6 -3 27 5 9 5 19 -2 27 -16 20 -27 16 -39 -14 -7 -20 -6 -29 3 -35 11 -8
11 -10 0 -15 -9 -4 -10 -8 -2 -18 14 -17 -7 -32 -22 -17 -8 8 -7 16 2 27 7 8
11 17 9 19 -2 2 -37 -1 -77 -7 -68 -9 -76 -8 -115 13 -48 27 -146 100 -166
124 -20 24 -41 20 -41 -8 0 -36 10 -56 28 -56 11 0 13 -3 6 -10 -6 -6 -8 -24
-6 -40 3 -25 7 -28 18 -19 17 14 18 36 2 42 -8 3 -6 6 5 6 9 1 17 -2 17 -7 0
-4 15 -13 33 -21 39 -17 144 -80 172 -103 11 -9 49 -38 85 -64 36 -26 110 -93
166 -150 89 -90 107 -114 152 -205 28 -57 56 -129 63 -160 32 -151 -23 -369
-135 -534 -23 -33 -46 -65 -52 -72 -6 -6 -38 -51 -70 -99 -62 -92 -76 -94 -55
-9 6 24 11 122 11 218 0 192 5 215 77 338 39 67 56 109 44 109 -5 0 -20 -18
-35 -40 -41 -62 -57 -53 -35 20 8 25 8 43 1 55 -9 17 -10 17 -21 -3 -6 -12
-16 -48 -22 -79 -20 -118 -49 -203 -49 -144 0 12 -4 30 -9 39 -5 9 -11 103
-15 207 -7 221 -13 272 -36 302 -17 22 -17 20 -14 -50 3 -63 2 -68 -7 -37 -6
19 -13 52 -16 73 -3 20 -9 40 -14 43 -5 3 -9 15 -9 28 0 26 -25 64 -36 54 -4
-5 -2 -25 4 -45 46 -161 78 -306 87 -398 l6 -60 -20 25 c-11 14 -34 53 -52 87
-26 52 -89 127 -89 107 0 -3 31 -71 70 -151 96 -199 120 -291 120 -459 0 -102
-5 -155 -23 -235 -23 -100 -76 -241 -94 -246 -4 -2 -13 7 -19 20 -6 12 -43 86
-82 163 -40 78 -72 147 -72 153 0 6 -4 19 -9 29 -18 34 -39 88 -62 162 -39
121 -34 321 13 565 5 28 12 139 15 249 l5 198 -23 -21 c-50 -46 -149 -53 -149
-10 0 14 -5 19 -14 16 -10 -4 -13 -1 -9 9 3 7 0 14 -5 14 -6 0 -13 8 -16 18
-9 27 -244 262 -262 262 -3 0 -32 28 -65 61 -65 69 -70 69 -105 -3 -33 -65
-75 -169 -91 -223 -13 -43 -49 -44 -120 -4 -32 17 -81 44 -109 59 -70 37 -192
121 -233 159 -18 17 -36 31 -40 31 -9 0 -61 -114 -89 -195 -40 -115 -53 -187
-53 -281 0 -51 -4 -96 -8 -99 -5 -2 -26 2 -47 11 -22 9 -55 21 -74 26 -54 14
-324 38 -333 29 -20 -20 51 -276 99 -358 26 -44 30 -82 14 -114 -13 -24 -37
-24 -141 2 -69 17 -104 20 -209 16 -69 -3 -145 -10 -170 -16 -25 -7 -58 -15
-75 -17 -16 -3 -39 -9 -50 -14 -11 -5 -33 -11 -50 -15 -16 -3 -48 -11 -70 -17
-22 -6 -86 -13 -143 -17 l-102 -6 24 -26 c14 -15 29 -29 34 -30 13 -6 102
-124 172 -229 58 -88 155 -211 172 -218 29 -13 -54 -105 -111 -123 -50 -16
-155 -67 -226 -109 -66 -40 -149 -80 -165 -80 -5 0 -10 -4 -10 -10 0 -5 -14
-10 -31 -10 -34 0 -34 0 28 -76 18 -21 50 -64 73 -94 22 -30 78 -93 125 -140
l85 -86 -44 -86 c-23 -47 -45 -94 -49 -104 -3 -11 -16 -50 -30 -89 -112 -316
-156 -658 -126 -975 24 -255 14 -333 -70 -505 -90 -184 -263 -423 -441 -610
-201 -211 -208 -221 -195 -272 11 -46 112 -133 216 -186 52 -26 101 -54 110
-60 28 -21 59 -80 59 -112 0 -38 -22 -110 -49 -163 -12 -23 -21 -51 -21 -62 0
-54 60 -118 154 -166 31 -15 56 -32 56 -37 0 -4 -24 -31 -53 -60 -38 -37 -59
-67 -71 -104 -26 -78 -15 -113 51 -170 96 -82 111 -139 122 -456 l8 -232 35
-75 c65 -139 172 -212 363 -245 67 -12 375 -7 650 11 477 30 617 3 765 -147
160 -161 225 -429 194 -800 -22 -261 -31 -318 -87 -541 -14 -55 -13 -57 7 -62
12 -3 632 -6 1379 -6 1130 0 1358 2 1363 13 3 8 -24 95 -59 193 -156 432 -217
732 -217 1052 0 207 24 356 86 539 36 106 126 276 190 360 70 91 109 138 136
165 15 15 28 33 28 41 0 8 11 18 26 21 14 4 49 26 78 50 29 24 80 60 112 82
32 21 62 43 66 49 8 10 -29 29 -107 56 -42 14 -142 80 -201 132 -38 32 -124
142 -124 156 0 28 253 26 307 -2 29 -15 36 -23 114 -129 40 -55 59 -70 59 -48
0 6 -18 41 -41 77 -57 94 -56 100 16 68 46 -20 82 -31 175 -55 186 -47 249
-60 296 -60 40 0 38 15 -3 23 -114 22 -246 58 -402 110 l-63 21 93 24 c77 19
112 23 189 19 79 -4 88 -3 55 6 -56 14 -236 14 -327 0 -68 -11 -91 -10 -188 6
-62 11 -114 21 -116 24 -3 2 19 14 48 27 29 12 81 42 116 66 150 104 190 113
295 65 78 -35 274 -165 300 -198 18 -22 21 -23 42 -9 40 26 187 39 397 34
l197 -4 -6 25 c-3 14 -10 34 -14 43 -5 9 -9 24 -9 32 0 9 -8 35 -19 59 -49
110 -87 289 -106 499 l-7 67 29 6 c182 40 304 91 403 170 41 33 140 129 140
137 0 13 61 98 71 98 5 0 9 5 9 11 0 9 47 74 78 107 18 20 11 33 -29 56 -192
108 -270 148 -329 166 -43 14 -60 25 -60 43 0 12 65 37 95 37 27 0 162 59 186
81 21 20 77 59 85 59 6 0 101 80 163 138 19 17 38 32 42 32 18 0 18 35 0 51
-33 31 -114 79 -133 79 -10 0 -18 5 -18 10 0 6 -9 10 -20 10 -11 0 -20 5 -20
10 0 6 -9 10 -19 10 -11 0 -23 5 -26 10 -3 6 -19 10 -35 10 -16 0 -31 4 -34 9
-9 13 -69 22 -186 28 -75 3 -107 8 -113 18 -6 11 -33 14 -110 13 -96 0 -110 3
-226 44 -69 24 -126 48 -128 54 -2 5 18 16 44 23 27 7 70 24 97 37 28 13 56
24 62 24 7 0 17 6 21 13 7 12 92 77 240 184 66 48 323 293 307 293 -12 0 -74
-51 -154 -126 -105 -99 -135 -125 -192 -164 -56 -39 -78 -48 -78 -31 0 10 92
135 128 174 19 20 22 27 10 27 -26 0 -110 -102 -157 -190 -59 -113 -184 -183
-418 -237 -16 -4 -23 -1 -23 10 0 8 3 17 8 19 14 6 90 104 121 156 41 70 135
186 167 207 31 20 28 43 -14 109 -16 24 -39 77 -53 117 -27 82 -40 98 -83 99
-28 0 -143 33 -178 51 -10 5 -25 9 -33 9 -8 0 -15 4 -15 9 0 5 37 12 83 16 45
4 97 13 116 21 18 8 41 14 51 14 10 0 24 7 31 16 12 14 7 15 -46 7 -76 -10
-407 -5 -419 7 -6 6 1 13 18 19 14 6 29 18 32 26 4 8 11 15 17 15 9 0 121 91
137 111 3 3 28 12 57 19 59 15 117 6 233 -36 96 -35 132 -30 53 7 -35 16 -63
31 -63 34 0 8 61 30 123 45 32 7 60 17 63 22 3 4 31 8 62 9 52 1 54 2 23 9
-32 8 -63 4 -226 -29 -22 -4 -52 -14 -68 -21 -21 -10 -30 -11 -39 -2 -10 10
-6 18 14 37 15 14 34 25 43 25 8 0 15 4 15 10 0 11 -18 5 -77 -27 -24 -12 -80
-28 -127 -35 -81 -11 -88 -14 -138 -60 -53 -49 -88 -74 -88 -63 0 12 64 100
103 142 21 23 52 47 68 53 16 7 29 16 29 20 0 4 8 10 18 13 9 3 47 16 84 30
75 28 163 42 288 46 36 1 40 4 40 26 0 23 -3 25 -52 26 -29 1 -60 1 -70 0 -9
-1 -19 3 -23 9 -3 5 1 10 9 10 9 0 16 5 16 10 0 6 -5 10 -12 10 -9 0 -9 3 0
12 9 9 16 8 29 -3 19 -16 43 -19 43 -6 0 4 0 12 0 17 0 6 -6 10 -14 10 -20 0
-30 18 -18 33 14 18 21 67 10 73 -9 6 65 45 122 63 40 13 83 46 78 60 -1 5
-25 -1 -53 -15 -27 -13 -58 -24 -67 -24 -9 0 -20 -4 -23 -10 -3 -5 -13 -10
-21 -10 -21 0 -47 27 -34 35 12 8 13 25 1 44 -8 13 -12 13 -26 1 -22 -18 -45
-21 -45 -7 0 17 69 79 80 72 6 -3 7 1 4 10 -7 18 64 90 128 131 43 27 49 36
39 52 -5 8 -22 1 -59 -23 l-52 -35 35 63 c19 35 35 69 35 76 0 23 -50 -14 -80
-60 -17 -24 -30 -38 -30 -31 0 6 -6 12 -14 12 -8 0 -17 -6 -19 -12 -3 -8 -6
-6 -6 5 -1 9 4 17 9 17 6 0 10 7 10 15 0 8 -7 15 -15 15 -8 0 -15 -7 -15 -15
0 -8 -7 -15 -15 -15 -8 0 -15 7 -15 15 0 10 14 17 40 21 38 6 57 24 25 24 -32
0 -112 -24 -157 -46 -51 -25 -58 -21 -58 35 0 16 -9 64 -19 107 -11 44 -23
106 -27 139 -4 33 -10 69 -14 79 -7 19 -8 19 -22 -5 -23 -35 -36 -106 -48
-259 -21 -261 -57 -432 -132 -620 -63 -158 -174 -335 -270 -427 -114 -110
-192 -148 -470 -228 -32 -9 -68 -25 -81 -36 -14 -10 -26 -16 -29 -14 -5 5 5
85 41 307 5 31 20 78 32 104 25 48 111 134 135 134 8 0 14 5 14 10 0 6 11 10
24 10 14 0 28 5 31 10 3 6 39 10 78 10 50 0 67 3 57 10 -41 26 -170 2 -256
-49 -19 -11 -34 -18 -34 -16 0 12 45 83 68 109 36 38 115 96 182 132 132 73
195 113 187 121 -4 3 -111 -47 -242 -114 -27 -14 -65 -40 -82 -56 -26 -24 -33
-27 -33 -14 0 18 21 52 92 153 24 34 58 83 77 110 44 62 216 279 253 319 29
31 37 52 16 39 -7 -5 -33 -31 -58 -58 -25 -27 -54 -59 -65 -70 -36 -38 -89
-101 -115 -135 -14 -19 -45 -60 -70 -91 -25 -31 -56 -72 -70 -90 -14 -18 -31
-39 -37 -46 -7 -7 -13 -17 -13 -23 0 -6 -4 -11 -8 -11 -7 0 -36 -47 -66 -107
-6 -13 -16 -25 -22 -27 -14 -5 -9 56 11 124 7 25 23 81 35 125 13 44 33 112
46 152 13 39 23 82 23 95 -1 20 -2 20 -6 3 -3 -10 -11 -28 -19 -40 -32 -49
-105 -313 -123 -447 -6 -43 -15 -86 -20 -95 -5 -10 -18 -38 -29 -63 -10 -25
-25 -60 -33 -77 l-14 -33 -12 53 c-7 28 -12 79 -13 112 -1 134 -23 136 -94 7
-55 -99 -66 -114 -135 -201 -42 -51 -67 -56 -43 -8 24 47 32 110 43 297 5 107
15 218 20 245 21 98 77 191 183 304 107 112 226 172 456 231 47 12 123 32 170
45 47 13 104 29 128 35 23 6 42 14 42 19 0 5 -9 20 -21 35 -20 26 -23 26 -97
21 -43 -3 -93 -10 -112 -15 -146 -36 -212 -44 -170 -20 8 5 31 23 50 40 19 17
60 45 90 63 30 17 81 56 113 87 32 30 78 74 102 97 25 24 45 48 45 54 0 17
-30 -9 -115 -98 -78 -82 -128 -111 -145 -83 -10 16 0 53 17 63 7 4 13 16 13
26 0 10 7 24 15 31 8 7 15 16 15 21 0 5 -7 9 -15 9 -8 0 -15 -5 -15 -11 0 -6
-9 -22 -20 -36 -11 -14 -20 -39 -20 -54 0 -16 -4 -29 -10 -29 -5 0 -10 -10
-10 -23 0 -27 -17 -47 -41 -47 -10 0 -38 -20 -63 -45 -57 -55 -76 -58 -76 -10
0 38 15 45 35 18 11 -15 13 -15 24 6 7 13 10 25 7 29 -3 3 -6 0 -6 -6 0 -7 -7
-12 -16 -12 -11 0 -15 6 -11 20 3 11 1 20 -4 20 -5 0 -9 14 -9 31 0 17 4 28
10 24 5 -3 7 -11 4 -18 -2 -7 2 -21 11 -32 15 -20 15 -20 31 0 16 21 12 80 -7
100 -15 15 -10 31 17 59 15 14 22 26 16 26 -6 0 -33 14 -61 31 -53 33 -71 32
-71 -6 0 -39 -27 -133 -56 -190 -29 -59 -125 -156 -224 -225 -19 -13 -37 -27
-40 -30 -3 -3 -15 -11 -27 -18 -21 -11 -23 -10 -23 11 0 43 21 140 36 162 8
12 20 44 27 71 7 28 33 79 58 114 65 93 101 158 90 164 -8 5 -19 -8 -66 -85
-31 -50 -62 -89 -74 -94 -11 -4 -12 5 -6 52 4 32 11 90 15 128 5 39 13 88 18
110 27 111 92 264 133 316 36 45 17 59 -23 18 -51 -54 -138 -247 -138 -306 0
-12 -4 -24 -9 -27 -5 -3 -12 -23 -15 -43 -21 -123 -25 -125 -20 -13 3 63 10
138 15 165 23 115 23 117 3 113 -41 -8 -69 -320 -45 -513 8 -62 0 -116 -26
-175 -9 -19 -20 -72 -24 -118 -8 -80 -32 -152 -49 -152 -5 0 -10 -7 -12 -17
-2 -9 -3 17 -3 58 -1 41 -7 90 -14 109 -7 19 -16 44 -21 55 -4 11 -17 40 -29
63 -11 24 -21 52 -21 62 0 11 -4 21 -9 24 -9 6 -21 67 -24 128 -1 20 -6 34
-10 31 -5 -3 -29 17 -53 43 -44 49 -57 66 -127 177 -21 31 -43 57 -51 57 -8 0
-31 -44 -57 -107 -24 -60 -65 -152 -91 -206 -26 -54 -48 -104 -48 -111 0 -8
-6 -19 -14 -25 -16 -13 -24 -5 -53 54 -51 104 -57 240 -13 325 13 25 27 68 31
95 5 28 13 79 18 115 6 36 10 97 10 135 -1 69 -1 69 -10 25 -5 -25 -18 -105
-29 -179 -14 -93 -28 -149 -46 -185 -30 -61 -44 -77 -44 -52 0 9 -12 52 -26
94 -38 112 -68 474 -47 552 6 19 7 44 3 55 -6 19 -8 18 -21 -5z m-1823 -939
c16 -5 56 -14 89 -21 139 -29 209 -51 310 -100 207 -100 383 -257 457 -410 32
-66 35 -74 58 -144 16 -51 17 -336 0 -407 -23 -102 -34 -139 -42 -139 -4 0
-15 16 -24 35 -9 19 -29 43 -45 52 -16 10 -29 21 -29 25 0 4 -7 8 -15 8 -8 0
-15 3 -15 8 0 4 -36 31 -79 60 -128 84 -176 145 -263 332 -27 58 -52 114 -57
125 -65 158 -193 348 -321 476 -14 14 -43 44 -65 67 -38 41 -39 42 -14 42 15
0 39 -4 55 -9z m2336 -51 c60 -165 86 -262 117 -435 5 -33 16 -91 23 -130 7
-38 12 -135 12 -215 0 -120 -4 -161 -23 -235 -33 -128 -98 -255 -180 -351 -77
-89 -122 -127 -291 -238 -87 -58 -116 -73 -118 -61 -2 9 0 21 5 28 5 7 15 32
22 57 7 25 17 55 22 68 5 13 9 49 10 80 0 77 24 261 37 292 5 14 22 39 36 55
14 17 26 38 26 48 0 9 5 17 10 17 6 0 10 8 10 18 0 9 7 26 15 36 8 11 15 26
15 34 0 19 -56 -45 -71 -80 -11 -27 -20 -34 -31 -23 -3 3 0 31 7 63 14 68 66
175 135 277 27 41 50 79 50 85 0 5 4 10 8 10 5 0 15 12 22 28 8 15 22 38 31
52 59 89 112 195 106 213 -4 11 -55 -54 -87 -111 -51 -90 -104 -176 -133 -214
-43 -57 -97 -145 -97 -160 0 -6 -3 -8 -7 -5 -3 4 -7 104 -7 222 -1 136 -5 215
-11 215 -16 1 -24 -54 -30 -200 -8 -186 -25 -397 -35 -445 -5 -22 -10 -55 -10
-74 0 -43 -32 -181 -41 -181 -4 0 -17 26 -29 58 -35 92 -57 132 -115 212 -84
115 -135 164 -135 128 0 -12 71 -118 101 -151 9 -9 22 -30 30 -45 7 -15 21
-38 30 -52 8 -14 37 -78 62 -142 44 -110 46 -120 40 -185 -3 -37 -9 -72 -13
-78 -4 -5 -13 -28 -20 -50 -7 -22 -26 -59 -41 -82 -16 -23 -29 -45 -29 -49 0
-4 -42 -50 -94 -103 -112 -113 -158 -170 -191 -237 -20 -41 -24 -45 -24 -23
-1 14 -12 57 -25 95 -13 38 -31 105 -41 149 -9 44 -21 96 -26 116 -12 49 -11
346 1 411 22 112 62 248 80 273 4 6 17 37 30 70 46 115 160 283 279 409 68 71
280 278 338 330 61 54 177 195 193 234 7 18 17 31 22 30 5 -2 19 -28 30 -58z
m-2241 -1000 c310 -63 590 -241 785 -499 67 -89 166 -279 203 -388 58 -172 87
-398 77 -595 -5 -115 -21 -266 -31 -294 -2 -6 -35 19 -73 57 -38 37 -118 99
-178 138 -244 157 -315 219 -403 351 -58 86 -121 207 -121 232 0 8 -4 18 -9
23 -9 10 -51 174 -71 280 -26 134 -30 151 -38 185 -10 37 -40 116 -72 185 -31
68 -130 194 -214 273 l-78 72 62 0 c34 0 106 -9 161 -20z m2624 -339 c3 -10 6
-103 8 -207 1 -163 -2 -205 -21 -304 -29 -142 -52 -223 -104 -365 -121 -331
-327 -552 -608 -653 -30 -11 -89 -32 -131 -46 -171 -60 -333 -190 -389 -311
-18 -39 -19 -39 -29 -15 -5 14 -15 84 -20 157 -12 145 -2 304 25 408 9 33 19
77 24 99 11 54 94 219 149 295 61 85 188 218 275 289 39 31 73 59 76 62 10 10
286 216 327 243 91 62 233 191 356 326 42 46 53 50 62 22z m895 -408 c74 -18
239 -91 352 -156 l77 -44 -35 -34 c-42 -40 -74 -84 -145 -201 -66 -109 -159
-221 -224 -270 -79 -60 -216 -121 -359 -158 -69 -18 -103 -21 -280 -18 l-201
2 -65 -33 c-36 -18 -74 -41 -86 -52 -11 -10 -23 -19 -26 -19 -8 0 30 138 49
173 8 17 39 55 67 85 58 62 148 111 296 162 52 18 102 40 110 49 8 9 35 29 60
46 25 16 62 44 83 62 43 39 172 123 187 123 6 0 10 4 10 9 0 12 -94 -25 -132
-51 -14 -10 -29 -18 -33 -18 -3 0 -38 -20 -76 -45 -81 -52 -141 -83 -224 -114
-33 -13 -69 -27 -80 -32 -11 -4 -45 -19 -75 -32 -30 -13 -80 -45 -110 -70 -30
-25 -56 -42 -58 -37 -2 4 6 28 17 52 11 23 27 66 36 93 42 129 128 275 211
358 56 56 169 129 234 152 128 46 280 53 420 18z m370 -1370 c30 -8 65 -17 78
-20 12 -3 25 -9 28 -14 3 -5 16 -9 29 -9 13 0 27 -4 30 -10 3 -5 15 -10 26
-10 10 0 27 -4 37 -9 60 -32 117 -52 262 -91 l45 -13 -40 -17 c-41 -18 -60
-17 -49 2 5 7 0 9 -14 6 -14 -4 -22 -2 -22 7 0 17 -50 29 -63 16 -6 -6 -24
-11 -40 -11 -27 0 -52 -5 -262 -50 -97 -21 -208 -33 -201 -22 4 6 22 16 98 52
15 7 34 10 42 7 9 -4 16 -3 16 2 0 4 11 13 25 19 14 6 25 16 25 21 0 42 -185
-18 -291 -94 -92 -66 -90 -65 -324 -68 -118 -1 -215 1 -215 6 0 4 12 13 28 20
15 6 31 18 36 26 10 17 59 65 136 134 34 30 59 46 69 42 8 -3 12 -3 9 1 -22
22 112 87 197 95 93 9 237 1 305 -18z m372 -227 c4 -5 4 -14 2 -18 -8 -13
-101 -58 -119 -58 -8 0 -15 -4 -15 -10 0 -5 -8 -10 -17 -10 -15 0 -16 2 -3 10
17 10 14 15 -17 24 -18 6 -23 3 -23 -9 0 -11 -5 -15 -14 -12 -8 3 -22 -1 -33
-8 -17 -14 -17 -14 7 -16 14 -1 33 -1 43 -1 14 2 15 -1 5 -11 -8 -9 -29 -12
-64 -9 -45 4 -54 2 -63 -17 -7 -11 -20 -21 -29 -21 -10 0 -28 -9 -40 -20 -21
-20 -42 -26 -42 -14 0 4 8 12 17 19 13 10 4 12 -53 12 -108 0 -137 3 -152 16
-8 6 -31 10 -53 9 -55 -4 -49 15 8 24 33 5 48 3 51 -5 3 -8 8 -7 16 5 11 15
39 23 144 41 18 3 35 9 38 14 3 5 17 9 31 9 14 0 44 5 67 11 54 13 144 39 176
50 58 19 118 17 132 -5z m-2072 -635 c-65 -70 -137 -188 -196 -320 -82 -187
-186 -336 -281 -405 -26 -19 -104 -63 -173 -98 -96 -48 -138 -76 -182 -121
-53 -52 -58 -55 -62 -35 -24 119 -3 279 57 433 90 232 238 390 472 504 102 50
189 76 305 90 125 16 122 18 60 -48z m645 -67 c175 -62 284 -111 329 -147 l29
-23 -54 -28 c-75 -39 -180 -120 -269 -206 -97 -95 -209 -178 -287 -213 -63
-28 -153 -45 -351 -66 -56 -6 -118 -17 -137 -25 -32 -14 -35 -14 -35 2 1 25
53 126 91 175 18 24 52 58 76 76 48 38 150 90 174 91 23 0 89 29 89 38 0 5 63
6 139 4 83 -2 146 0 157 6 14 8 4 11 -47 17 -89 9 -96 9 -164 1 l-60 -7 25 20
c14 12 57 37 95 55 39 19 83 46 98 60 15 14 35 26 43 26 7 0 14 5 14 10 0 14
-21 12 -39 -4 -9 -8 -34 -21 -56 -30 l-40 -16 35 33 c19 17 51 44 70 59 24 19
30 28 18 28 -9 0 -20 -4 -23 -10 -3 -5 -13 -10 -21 -10 -21 0 -97 -53 -163
-112 -57 -52 -104 -79 -213 -122 -100 -40 -154 -73 -212 -130 -51 -49 -70 -79
-114 -176 -11 -25 -27 -61 -36 -80 l-16 -35 0 35 c0 43 37 228 50 252 6 10 10
25 10 33 0 8 4 23 9 33 5 9 17 33 25 52 37 80 110 182 167 236 60 56 168 123
232 144 97 32 169 23 362 -46z m-530 -913 c55 -11 124 -29 153 -39 l53 -19
-44 -17 c-68 -26 -126 -72 -217 -176 -159 -179 -253 -252 -420 -322 -110 -47
-150 -59 -265 -78 -132 -23 -177 -40 -222 -84 l-42 -42 -6 33 c-14 77 18 134
117 210 66 51 107 74 181 101 67 25 104 27 131 7 25 -19 37 -19 30 -1 -3 8
-21 22 -41 31 l-35 17 21 22 c19 20 52 33 201 78 35 11 110 41 142 59 10 5 23
9 30 9 15 1 58 35 58 46 0 4 8 13 18 20 34 26 -8 14 -55 -16 -56 -36 -133 -66
-229 -90 -39 -10 -81 -23 -93 -30 -28 -15 -39 -5 -23 20 7 11 12 24 12 30 0 5
13 29 29 52 16 24 27 45 25 47 -9 9 -88 -86 -110 -132 -30 -67 -57 -92 -123
-117 -104 -40 -176 -82 -228 -133 l-53 -51 0 29 c0 33 14 81 41 143 11 23 19
47 19 53 0 16 95 152 126 179 109 96 227 155 349 176 111 19 342 11 470 -15z"/>
<path d="M4537 1133 c-4 -3 -7 -170 -7 -370 l0 -363 40 0 40 0 0 370 0 370
-33 0 c-19 0 -37 -3 -40 -7z"/>
<path d="M6709 1127 c-112 -42 -154 -100 -147 -205 4 -62 6 -67 48 -104 42
-38 52 -42 270 -106 106 -31 154 -110 111 -179 -60 -96 -264 -96 -404 0 -15
10 -21 9 -33 -7 -22 -31 -17 -43 31 -72 69 -40 132 -56 230 -57 174 -1 265 70
265 207 0 48 -4 60 -32 91 -41 47 -87 70 -206 101 -163 44 -207 76 -207 149 0
128 180 166 377 81 24 -11 46 41 26 59 -48 44 -253 70 -329 42z"/>
<path d="M3520 765 l0 -365 35 0 35 0 2 293 3 292 145 -248 c115 -196 149
-247 164 -245 12 2 64 81 160 246 l141 242 3 -290 2 -290 35 0 35 0 0 365 0
365 -32 0 c-32 -1 -36 -6 -138 -183 -57 -100 -128 -221 -156 -270 l-51 -87
-158 270 c-157 268 -158 270 -191 270 l-34 0 0 -365z"/>
<path d="M4860 766 l0 -366 40 0 40 0 2 296 3 296 234 -296 c223 -282 236
-296 268 -296 l33 0 0 365 0 365 -40 0 -40 0 -2 -293 -3 -293 -230 291 c-222
279 -232 290 -268 293 l-37 3 0 -365z"/>
<path d="M5730 766 l0 -366 178 0 c247 0 329 25 422 126 164 180 95 487 -129
576 -50 20 -76 23 -263 26 l-208 3 0 -365z m431 275 c113 -44 179 -142 179
-267 0 -130 -51 -219 -158 -271 -54 -26 -66 -28 -214 -31 l-158 -4 0 302 0
302 148 -4 c120 -4 157 -9 203 -27z"/>
</g>
</svg>
